<?xml version="1.0" standalone="no"?>
<!DOCTYPE svg PUBLIC "-//W3C//DTD SVG 20010904//EN"
 "http://www.w3.org/TR/2001/REC-SVG-20010904/DTD/svg10.dtd">
<svg version="1.0" xmlns="http://www.w3.org/2000/svg"
 width="2849.000000pt" height="2056.000000pt" viewBox="0 0 2849.000000 2056.000000"
 preserveAspectRatio="xMidYMid meet">
<metadata>
Created by potrace 1.15, written by Peter Selinger 2001-2017
</metadata>
<g transform="translate(0.000000,2056.000000) scale(0.100000,-0.100000)"
fill="#000000" stroke="none">
<path d="M13696 19324 c-1558 -141 -2957 -946 -3864 -2222 -422 -595 -722
-1285 -866 -1994 -72 -357 -96 -582 -103 -975 -7 -419 15 -713 82 -1078 268
-1462 1162 -2768 2430 -3550 984 -608 2136 -877 3295 -769 1579 146 3011 993
3902 2309 519 766 816 1611 899 2560 16 181 16 661 0 840 -20 225 -49 437 -87
625 -172 868 -564 1688 -1131 2365 -926 1108 -2233 1781 -3677 1895 -178 14
-700 10 -880 -6z m-646 -4704 c601 -655 1099 -1189 1104 -1187 6 2 502 537
1101 1189 l1090 1187 1103 0 1103 1 -299 -347 c-165 -192 -1149 -1336 -2186
-2543 -1038 -1207 -1891 -2196 -1895 -2198 -7 -2 -4354 5008 -4399 5070 -13
17 28 18 1085 18 l1099 0 1094 -1190z"/>
<path d="M9336 6834 c-669 -104 -1182 -595 -1275 -1221 -16 -106 -13 -335 5
-444 52 -312 229 -620 471 -822 162 -134 319 -221 522 -287 192 -62 283 -75
541 -75 288 0 397 17 778 122 l132 36 0 344 c0 188 -2 343 -3 343 -2 0 -60
-26 -128 -59 -149 -71 -291 -124 -419 -159 -87 -24 -112 -26 -300 -26 -183 -1
-214 2 -290 22 -380 103 -600 386 -601 777 -1 215 38 364 136 516 213 331 659
434 1159 267 50 -16 171 -67 269 -113 l177 -83 0 348 0 347 -86 32 c-182 66
-356 110 -539 136 -126 18 -429 18 -549 -1z"/>
<path d="M17319 6839 c-221 -15 -427 -72 -634 -173 -161 -79 -281 -164 -399
-281 -265 -264 -397 -587 -397 -969 0 -244 41 -430 141 -631 165 -334 461
-583 840 -709 463 -154 1023 -115 1438 99 381 196 637 518 732 919 44 183 46
423 5 619 -60 289 -229 568 -460 757 -218 178 -491 298 -796 349 -57 10 -345
33 -359 29 -3 0 -53 -4 -111 -9z m413 -593 c322 -82 546 -326 604 -658 21
-121 14 -309 -15 -423 -107 -410 -473 -650 -933 -614 -388 31 -681 286 -765
663 -21 96 -20 288 2 390 37 176 107 308 224 427 124 124 305 213 489 239 109
15 284 4 394 -24z"/>
<path d="M850 6814 c0 -5 1147 -2692 1181 -2766 l12 -28 301 0 301 0 595 1391
c327 766 597 1396 598 1400 2 5 -149 8 -349 7 l-353 -3 -395 -917 c-217 -505
-397 -915 -400 -913 -2 3 -181 416 -397 918 l-393 912 -351 3 c-192 1 -350 0
-350 -4z"/>
<path d="M5510 5420 l0 -1400 345 0 345 0 0 1400 0 1400 -345 0 -345 0 0
-1400z"/>
<path d="M12100 6515 l0 -305 360 0 360 0 0 -1095 0 -1095 345 0 345 0 0 1095
0 1095 365 0 365 0 0 305 0 305 -1070 0 -1070 0 0 -305z"/>
<path d="M20940 5420 l0 -1400 345 0 345 0 0 540 0 540 33 0 c31 -1 50 -24
437 -537 223 -294 409 -537 415 -539 5 -2 185 -3 399 -2 l388 3 -432 570
c-238 313 -434 574 -436 580 -2 5 43 32 100 59 191 90 291 187 381 371 58 118
84 217 92 342 23 382 -188 679 -567 802 -187 60 -337 71 -997 71 l-503 0 0
-1400z m1058 866 c142 -35 253 -122 287 -226 24 -73 16 -182 -20 -255 -67
-139 -210 -200 -487 -212 l-148 -6 0 363 0 363 153 -6 c83 -3 180 -13 215 -21z"/>
<path d="M24883 6808 c3 -7 230 -346 506 -753 l501 -739 0 -648 0 -648 340 0
340 0 0 651 0 650 500 739 c275 406 500 743 500 749 0 8 -108 10 -382 9 l-381
-3 -291 -426 c-187 -275 -295 -424 -301 -418 -5 5 -136 197 -290 427 l-280
417 -384 3 c-305 2 -382 0 -378 -10z"/>
<path d="M7295 2116 c-97 -31 -167 -87 -201 -161 -19 -39 -24 -67 -24 -131 0
-155 60 -226 286 -335 114 -56 147 -76 159 -100 14 -26 14 -32 1 -58 -19 -37
-32 -41 -122 -41 -81 0 -157 24 -255 79 -31 17 -59 31 -62 31 -4 0 -7 -60 -7
-134 l0 -134 63 -25 c112 -45 204 -59 340 -55 146 5 211 26 285 93 67 60 95
126 95 226 1 146 -51 205 -284 324 -188 97 -217 128 -163 181 24 24 30 26 108
23 76 -4 91 -8 182 -54 54 -27 102 -51 107 -53 4 -2 7 55 7 126 l0 129 -58 26
c-32 15 -87 33 -122 41 -79 19 -278 20 -335 2z"/>
<path d="M8450 1985 l0 -135 195 0 195 0 0 -400 0 -400 160 0 160 0 0 400 0
400 195 0 195 0 0 135 0 135 -550 0 -550 0 0 -135z"/>
<path d="M10401 2102 c-13 -25 -461 -1042 -461 -1047 0 -3 76 -5 168 -5 l169
0 43 110 43 110 227 0 227 0 43 -110 43 -110 169 0 c104 0 168 4 166 10 -1 5
-106 245 -233 534 l-230 526 -182 0 c-164 0 -183 -2 -192 -18z m196 -640 c-77
-1 -142 0 -145 3 -4 4 21 69 126 324 l14 35 73 -180 73 -179 -141 -3z"/>
<path d="M13680 1585 l0 -535 160 0 160 0 2 297 3 296 135 -166 c74 -91 142
-166 151 -166 8 -1 78 76 155 170 l139 171 3 -301 2 -301 165 0 165 0 0 535 0
535 -154 0 -154 0 -158 -195 -159 -195 -23 30 c-13 17 -84 105 -158 195 l-135
165 -149 0 -150 0 0 -535z"/>
<path d="M15981 2102 c-13 -25 -461 -1042 -461 -1047 0 -3 76 -5 168 -5 l169
0 43 110 43 110 227 0 227 0 43 -110 43 -110 169 0 c104 0 168 4 166 10 -1 5
-106 245 -233 534 l-230 526 -182 0 c-164 0 -183 -2 -192 -18z m196 -640 c-77
-1 -142 0 -145 3 -4 4 21 69 126 324 l14 35 73 -180 73 -179 -141 -3z"/>
<path d="M17420 1585 l0 -535 165 0 165 0 0 206 0 206 60 -4 c52 -4 65 -9 96
-39 34 -32 108 -168 167 -306 l26 -63 176 0 176 0 -7 23 c-4 12 -46 104 -95
203 -72 151 -95 187 -128 215 l-41 32 42 28 c82 55 124 147 116 259 -9 121
-78 224 -187 277 l-56 28 -337 3 -338 3 0 -536z m537 299 c15 -12 34 -38 42
-59 13 -32 13 -43 0 -79 -18 -53 -57 -72 -166 -80 l-83 -5 0 125 0 126 89 -4
c72 -2 95 -7 118 -24z"/>
<path d="M19060 1585 l0 -535 165 0 165 0 0 535 0 535 -165 0 -165 0 0 -535z"/>
<path d="M20441 2102 c-13 -25 -461 -1042 -461 -1047 0 -3 76 -5 168 -5 l169
0 43 110 43 110 227 0 227 0 43 -110 43 -110 169 0 c104 0 168 4 166 10 -1 5
-106 245 -233 534 l-230 526 -182 0 c-164 0 -183 -2 -192 -18z m196 -640 c-77
-1 -142 0 -145 3 -4 4 21 69 126 324 l14 35 73 -180 73 -179 -141 -3z"/>
<path d="M11840 1358 c-58 -40 -75 -72 -75 -143 0 -71 17 -103 76 -143 29 -20
44 -23 101 -20 61 3 71 7 103 38 42 41 59 88 52 147 -9 86 -76 143 -167 143
-43 0 -65 -6 -90 -22z"/>
</g>
</svg>
